# xmcd
#
# Track frame offsets: 
#        150
#        11637
#        20766
#        39277
#        52992
#        71037
#        83478
#        99805
#        117284
#        126969
#        136226
#
# Disc length: 2007 seconds
#
# Revision: 0
# Processed by: cddbd v1.5.1PL0 Copyright (c) Steve Scherf et al.
# Submitted via: ExactAudioCopy v0.95b3
#
DISCID=8507d50b
DTITLE=Margo Jean And The Rubes - Country Fried
DYEAR=2002
DGENRE=Country
TTITLE0=Chased
TTITLE1=One Afternoon
TTITLE2=I shoulda Known
TTITLE3=& Then
TTITLE4=Let's Go
TTITLE5=The Slide
TTITLE6=These Days
TTITLE7=My Queen
TTITLE8=Farmer's Daughter
TTITLE9=Smokin
TTITLE10=Sweet Baby
EXTD=
EXTT0=
EXTT1=
EXTT2=
EXTT3=
EXTT4=
EXTT5=
EXTT6=
EXTT7=
EXTT8=
EXTT9=
EXTT10=
PLAYORDER=
